<?xml version="1.0" standalone="no"?>
<!DOCTYPE svg PUBLIC "-//W3C//DTD SVG 20010904//EN"
 "http://www.w3.org/TR/2001/REC-SVG-20010904/DTD/svg10.dtd">
<svg version="1.0" xmlns="http://www.w3.org/2000/svg"
 width="1024.000000pt" height="1024.000000pt" viewBox="0 0 1024.000000 1024.000000"
 preserveAspectRatio="xMidYMid meet">
<metadata>
Created by potrace 1.11, written by Peter Selinger 2001-2013
</metadata>
<g transform="translate(0.000000,1024.000000) scale(0.100000,-0.100000)"
fill="#000000" stroke="none">
<path d="M4899 9185 c-2 -2 -51 -6 -109 -9 -58 -3 -114 -8 -125 -10 -11 -2
-45 -7 -75 -11 -47 -5 -132 -19 -255 -40 -121 -21 -310 -70 -485 -126 -308
-98 -664 -263 -920 -427 -156 -99 -327 -222 -415 -297 -16 -14 -50 -42 -74
-63 -138 -116 -284 -259 -401 -392 -41 -47 -77 -87 -80 -90 -71 -69 -279 -364
-393 -556 -64 -110 -73 -125 -137 -254 -140 -281 -269 -645 -324 -915 -9 -44
-19 -91 -22 -105 -8 -37 -12 -61 -18 -100 -3 -19 -8 -46 -11 -60 -2 -14 -6
-45 -9 -70 -12 -119 -18 -167 -22 -195 -3 -16 -7 -149 -9 -295 -2 -237 8 -433
30 -580 2 -19 7 -55 10 -80 3 -25 8 -52 10 -60 2 -8 7 -31 10 -50 30 -181 105
-459 173 -645 91 -247 172 -420 310 -665 30 -53 212 -333 222 -340 3 -3 17
-21 30 -40 118 -169 389 -464 576 -625 38 -33 78 -68 89 -79 67 -62 481 -356
501 -356 3 0 18 -8 32 -18 100 -69 398 -215 617 -302 114 -45 375 -130 444
-145 9 -2 54 -13 101 -24 47 -11 101 -23 120 -26 19 -3 42 -8 50 -10 8 -2 31
-7 50 -10 19 -3 60 -10 90 -15 30 -5 80 -12 110 -15 30 -3 62 -8 70 -10 43
-11 252 -20 455 -20 288 0 427 10 650 45 107 17 124 20 205 36 41 9 82 17 90
19 131 27 422 118 594 187 162 63 355 155 484 230 46 26 86 48 89 48 3 0 83
51 177 114 310 206 568 429 811 701 478 535 807 1193 944 1890 31 156 36 186
46 270 4 28 8 64 11 80 25 181 25 675 1 880 -10 77 -19 149 -21 160 -2 11 -7
40 -10 65 -8 56 -11 73 -37 190 -119 541 -330 1020 -645 1471 -48 68 -99 138
-113 154 -14 17 -42 51 -61 75 -172 218 -590 623 -622 604 -6 -4 -8 -2 -5 3
13 21 -277 226 -508 360 -396 230 -925 423 -1341 489 -20 3 -46 8 -58 10 -11
2 -41 7 -66 10 -25 3 -56 7 -70 9 -14 3 -56 7 -95 11 -38 3 -81 8 -95 11 -28
6 -566 14 -571 8z"/>
</g>
</svg>
