<?xml version="1.0" standalone="no"?>
<!DOCTYPE svg PUBLIC "-//W3C//DTD SVG 20010904//EN"
 "http://www.w3.org/TR/2001/REC-SVG-20010904/DTD/svg10.dtd">
<svg version="1.0" xmlns="http://www.w3.org/2000/svg"
 width="700.000000pt" height="700.000000pt" viewBox="0 0 700.000000 700.000000"
 preserveAspectRatio="xMidYMid meet">
<metadata>
Created by potrace 1.11, written by Peter Selinger 2001-2013
</metadata>
<g transform="translate(0.000000,700.000000) scale(0.100000,-0.100000)"
fill="#000000" stroke="none">
<path d="M3305 6519 c-626 -39 -1246 -287 -1731 -690 -655 -545 -1055 -1347
-1093 -2187 l-6 -142 1518 0 1517 0 0 -1525 c0 -1213 3 -1525 13 -1525 69 0
354 24 432 36 484 73 934 256 1325 537 765 548 1234 1431 1263 2375 l3 102
-1518 0 -1518 0 0 1515 0 1515 -37 -1 c-21 -1 -96 -6 -168 -10z"/>
</g>
</svg>
