<?xml version="1.0" standalone="no"?>
<!DOCTYPE svg PUBLIC "-//W3C//DTD SVG 20010904//EN"
 "http://www.w3.org/TR/2001/REC-SVG-20010904/DTD/svg10.dtd">
<svg version="1.0" xmlns="http://www.w3.org/2000/svg"
 width="640.000000pt" height="640.000000pt" viewBox="0 0 640.000000 640.000000"
 preserveAspectRatio="xMidYMid meet">
<metadata>
Created by potrace 1.11, written by Peter Selinger 2001-2013
</metadata>
<g transform="translate(0.000000,640.000000) scale(0.100000,-0.100000)"
fill="#000000" stroke="none">
<path d="M3009 6096 c-2 -2 -40 -6 -84 -10 -44 -3 -91 -8 -105 -10 -14 -3 -43
-7 -65 -10 -167 -23 -399 -84 -585 -153 -107 -39 -376 -168 -433 -207 -21 -14
-40 -26 -43 -26 -12 0 -195 -127 -293 -204 -113 -88 -311 -279 -407 -391 -233
-272 -418 -596 -536 -935 -16 -47 -31 -94 -33 -104 -3 -11 -11 -40 -19 -65 -9
-25 -17 -57 -20 -71 -2 -14 -7 -32 -10 -40 -10 -27 -55 -296 -63 -381 -15
-162 -9 -539 11 -659 3 -14 7 -47 11 -75 3 -27 8 -57 10 -65 2 -8 6 -26 9 -40
29 -161 93 -372 174 -575 40 -100 170 -339 245 -454 290 -438 668 -775 1137
-1009 154 -77 428 -182 542 -206 13 -3 61 -14 108 -25 47 -11 101 -22 120 -25
19 -3 49 -8 65 -11 139 -24 235 -30 450 -30 224 0 362 11 510 40 106 20 145
29 240 54 300 79 600 216 875 401 216 145 465 375 630 580 275 343 496 806
575 1205 18 93 36 196 41 240 3 28 9 77 14 110 9 71 6 475 -4 560 -15 121 -47
302 -72 400 -208 829 -774 1527 -1539 1901 -280 136 -620 239 -895 270 -36 3
-76 9 -90 11 -30 5 -466 13 -471 9z"/>
</g>
</svg>
